<?xml version="1.0" encoding="iso-8859-1"?>
<!-- Generator: Adobe Illustrator 19.0.0, SVG Export Plug-In . SVG Version: 6.00 Build 0)  -->
<svg version="1.1" id="Capa_1" xmlns="http://www.w3.org/2000/svg" xmlns:xlink="http://www.w3.org/1999/xlink" x="0px" y="0px"
	 viewBox="0 0 110 110" style="enable-background:new 0 0 110 110;" xml:space="preserve">
<g id="scroll">
	<g>
		<path style="fill:#8b91dd; fill-rule:evenodd;clip-rule:evenodd;" d="M109.952,34.237c-0.302-1.738,0.288-3.484-0.262-4.93
			c-0.025-0.556-0.047-0.862-0.053-1.17c-0.119-5.701-1.577-11.132-3.377-16.484c-0.354-1.056-0.887-2.088-1.519-3.004
			c-1.097-1.593-3.503-1.7-4.815-0.331c-1.695,1.771-3.398,3.532-5.098,5.297c-0.343,0.357-0.714,0.386-1.037,0.008
			c-3.145-3.675-7.139-6.076-11.613-7.761c-1.447-0.545-2.907-0.938-4.483-0.92c-1.118,0.013-2.259-0.089-3.352-0.315
			c-1.106-0.231-2.031,0.049-2.916,0.613c-0.886,0.564-1.525,1.351-1.951,2.319c-0.37,0.84-0.72,1.703-1.204,2.477
			c-1.904,3.037-3.846,6.052-5.803,9.057c-0.556,0.853-1.169,1.679-1.832,2.451c-1.133,1.325-2.289,2.633-3.503,3.882
			c-2.001,2.058-4.039,4.081-6.095,6.085c-1.688,1.645-3.497,3.17-5.123,4.872c-2.564,2.682-5.363,5.045-8.435,7.134
			c-8.56,5.824-17.106,11.669-25.173,18.181c-0.705,0.568-1.593,0.908-2.386,1.371c-0.612,0.358-1.266,0.677-1.8,1.132
			c-0.933,0.793-1.786,1.679-2.675,2.524c-1.495,1.425-2.841,2.971-3.64,4.902c-1.438,3.468-1.632,7.154-1.806,10.838
			c-0.016,0.303,0.015,0.622,0.099,0.912c0.704,2.458,1.352,4.936,2.169,7.356c0.558,1.649,1.442,3.154,2.539,4.542
			c2.725,3.451,6.161,5.979,10.04,7.96c1.005,0.513,2.044,0.881,3.201,0.995c2.034,0.201,4.048,0.693,6.082,0.784
			c2.891,0.13,5.735-0.214,8.191-2.004c0.413-0.303,0.846-0.576,1.26-0.877c2.991-2.175,5.313-5.112,8.325-7.266
			c0.327-0.232,0.564-0.591,0.843-0.894c2.148-2.337,4.236-4.736,6.467-6.995c1.806-1.83,3.521-3.719,5.01-5.815
			c2.824-3.975,6.485-7.083,10.403-9.915c0.548-0.396,1.217-0.343,1.629,0.257c0.791,1.152,1.792,1.891,3.165,2.216
			c0.671,0.159,0.847,0.734,0.631,1.489c-0.169,0.591-0.377,1.169-0.556,1.757c-1.47,4.849-1.986,9.811-1.97,14.867
			c0.012,3.211,1.041,5.991,2.746,8.646c1.127,1.758,2.799,2.983,4.084,4.576c0.214,0.266,0.732,0.377,1.117,0.393
			c0.609,0.025,1.227-0.077,1.837-0.148c1.504-0.178,2.026-0.705,2.062-2.126c0.04-1.536,0.034-3.074,0.069-4.611
			c0.008-0.296,0.072-0.608,0.191-0.877c0.064-0.146,0.32-0.328,0.454-0.303c0.389,0.074,0.787,0.193,1.133,0.385
			c1.256,0.691,2.465,1.471,3.741,2.12c1.404,0.715,2.881,0.054,3.526-1.393c0.507-1.133,0.465-2.167-0.238-3.186
			c-0.291-0.421-0.579-0.85-0.816-1.301c-0.069-0.131,0.021-0.363,0.08-0.535c0.023-0.069,0.17-0.151,0.243-0.138
			c0.3,0.057,0.591,0.198,0.893,0.221c1.816,0.133,2.954-1,2.765-2.756c-0.064-0.598-0.469-1.323-0.248-1.746
			c0.37-0.71,1.287-0.363,1.979-0.437c1.424-0.15,2.849-0.291,4.271-0.452c0.636-0.072,1.198-0.309,1.476-0.942
			c0.363-0.828,0.241-1.61-0.341-2.29c-0.263-0.308-0.578-0.595-0.923-0.804c-2.57-1.564-4.609-3.733-6.745-5.803
			c-2.604-2.521-4.576-5.514-6.505-8.544c-0.644-1.012-0.785-2.062-0.587-3.23c0.223-1.312,0.32-2.643,0.495-3.963
			c0.271-2.028-0.213-3.864-1.368-5.537c-0.233-0.337-0.493-0.657-0.714-1.002c-0.352-0.547-0.306-0.904,0.221-1.324
			c3.366-2.684,6.687-5.427,10.128-8.01c2.801-2.102,5.93-3.651,9.315-4.604c1.201-0.338,2.313-0.818,3.346-1.508
			c1.01-0.676,1.808-1.677,3.093-1.941c0.246-0.053,0.488-0.379,0.63-0.634C109.603,36.852,110.172,35.515,109.952,34.237z
			 M61.232,45.115c0.034-0.022,0.075-0.033,0.117-0.042c0.028-0.039,0.057-0.079,0.085-0.118c0.033-0.015,0.079-0.02,0.127-0.023
			c0.052-0.122,0.104-0.243,0.155-0.365c0.301,0.377,0.045,0.351-0.155,0.365c-0.015,0.035-0.029,0.069-0.044,0.104
			c-0.056,0.014-0.113,0.023-0.168,0.036c-0.061,0.083-0.119,0.165-0.18,0.248C61.189,45.249,61.187,45.144,61.232,45.115z
			 M58.265,32.206c0.162,0.06,0.325,0.123,0.487,0.184c-0.068,0.06-0.149,0.179-0.204,0.168c-0.169-0.03-0.33-0.111-0.493-0.173
			C58.124,32.326,58.194,32.266,58.265,32.206z M20.048,61.673c0.058-0.081,0.138-0.152,0.22-0.209
			c7.286-4.946,14.579-9.884,21.855-14.846c1.184-0.808,2.288-1.728,3.445-2.575c0.24-0.178,0.544-0.267,0.793-0.387
			c0.229,0.082,0.453,0.107,0.609,0.224c2.633,1.96,5.2,3.996,7.39,6.464c0.325,0.367,0.26,0.737-0.075,1.067
			c-2.339,2.316-4.969,4.276-7.636,6.182c-1.666,1.189-3.402,2.287-5.146,3.36c-0.867,0.532-1.812,0.944-2.742,1.363
			c-1.401,0.631-2.811,1.241-4.234,1.819c-1.233,0.502-1.971,1.336-2.263,2.672c-0.132,0.61-0.065,0.998,0.422,1.285
			c1.716,1.014,3.033,2.418,4.086,4.091c0.491,0.78,0.487,0.878-0.148,1.582c-0.688,0.76-1.342,1.553-2.076,2.266
			c-0.705,0.686-0.983,1.852-2.187,1.987c-0.644-0.761-0.415-1.746-0.657-2.616c-0.887-3.195-2.186-6.168-4.354-8.721
			c-0.395-0.464-0.727-0.988-1.033-1.516c-1.113-1.913-2.623-3.12-4.975-2.944c-0.398,0.029-0.808-0.066-1.211-0.12
			c-0.077-0.011-0.2-0.096-0.204-0.152C19.924,61.858,19.989,61.755,20.048,61.673z M24.166,84.606
			c-0.473,0.575-1.018,0.986-1.801,0.96c-1.008-0.034-2.023-0.015-3.021-0.143c-0.324-0.043-0.675-0.431-0.86-0.749
			c-0.083-0.141,0.156-0.564,0.351-0.755c2.03-1.973,4.077-3.927,6.135-5.87c0.104-0.098,0.352-0.065,0.527-0.049
			c0.047,0.005,0.108,0.174,0.111,0.269c0.012,0.403,0.006,0.808,0.006,1.025C25.753,81.363,25.398,83.108,24.166,84.606z
			 M36.023,93.058c-0.941,0.93-1.725,2.088-2.804,2.798c-1.784,1.172-3.744,2.08-5.65,3.059c-0.348,0.18-0.789,0.211-1.193,0.244
			c-5.261,0.436-9.9-1.074-13.92-4.486c-1.27-1.077-2.214-2.389-2.856-3.938C8.14,87.21,7.134,83.522,6.945,79.756
			c-0.174-3.486,0.504-6.941,3.202-9.611c0.825-0.817,1.756-1.462,2.863-1.703c2.713-0.593,5.456-0.774,8.211-0.218
			c0.536,0.108,0.959,0.355,1.196,0.848c0.309,0.645,0.607,1.297,0.869,1.961c0.269,0.688,0.121,1.015-0.508,1.587
			c-1.133,1.031-2.279,2.051-3.353,3.139c-1.87,1.895-3.655,3.867-5.912,5.34c-1.269,0.829-2.077,1.961-1.835,3.605
			c0.123,0.841,0.467,1.561,1.053,2.167c0.141,0.147,0.31,0.267,0.468,0.397c1.259,1.038,2.519,2.076,3.777,3.113
			c1.522,0.126,3.046,0.242,4.567,0.381c0.509,0.047,1.009,0.196,1.517,0.225c2.626,0.144,5.077-0.395,7.292-1.881
			c2.572-1.727,4.896-3.701,6.577-6.349c0.385-0.604,0.797-1.193,1.24-1.753c0.179-0.225,0.479-0.354,0.724-0.525
			c0.133,0.228,0.358,0.445,0.384,0.685c0.107,1.017,0.156,2.04,0.226,3.062C39.777,87.738,38.485,90.623,36.023,93.058z
			 M62.048,66.235c-1.194,0.53-1.806,1.626-2.619,2.532c-0.888,0.989-1.844,1.917-2.763,2.878c-0.99,1.037-2.06,2.015-2.939,3.141
			c-1.391,1.778-2.971,3.377-4.487,5.04c-0.756,0.828-1.391,1.767-2.112,2.63c-0.184,0.22-0.486,0.339-0.735,0.505
			c-0.133-0.243-0.353-0.475-0.385-0.73c-0.156-1.217-0.297-2.438-0.379-3.661c-0.243-3.599-1.603-6.738-3.843-9.528
			c-0.32-0.398-0.65-0.793-0.952-1.205c-0.312-0.422-0.109-0.794,0.24-1.031c0.676-0.459,1.374-0.896,2.095-1.279
			c3.531-1.881,6.95-3.944,10.204-6.273c1.414-1.013,2.781-2.093,4.162-3.152c0.614-0.471,1.065-0.4,1.488,0.277
			c0.216,0.347,0.453,0.692,0.6,1.07c0.959,2.479,1.898,4.967,2.835,7.456c0.07,0.186,0.074,0.397,0.116,0.646
			C62.414,65.768,62.288,66.129,62.048,66.235z M68.888,58.576c-0.092,0.098-0.395,0.148-0.473,0.078
			c-0.223-0.199-0.395-0.462-0.557-0.718c-1.098-1.721-2.177-3.454-3.283-5.168c-0.624-0.968-0.438-1.857,0.614-2.516
			c0.12-0.076,0.431-0.05,0.515,0.048c1.528,1.792,3.027,3.609,3.544,5.998c0.106,0.49,0.143,0.996,0.203,1.434
			C69.227,58.08,69.092,58.36,68.888,58.576z M67.216,39.094c0.07-0.054,0.152-0.161,0.209-0.148
			c0.169,0.036,0.327,0.121,0.49,0.186c-0.145,0.093-0.28,0.225-0.437,0.256C67.413,39.398,67.304,39.197,67.216,39.094z
			 M69.412,50.586c0-0.051,0.002-0.103,0.005-0.154c-0.392-0.26-0.587-0.619-0.528-1.104c-0.014-0.004-0.022-0.01-0.037-0.013
			c0.003-0.014,0-0.025,0.002-0.039c-0.697,0.017-1.016-0.481-1.274-1.011c-0.061-0.125,0.045-0.397,0.161-0.517
			c0.08-0.082,0.374-0.088,0.463-0.007c0.443,0.407,0.779,0.881,0.65,1.534c0.014,0,0.022,0.006,0.036,0.005
			c-0.003,0.017,0.001,0.03-0.001,0.047c0.641,0.163,0.551,0.649,0.528,1.104c0.028,0.019,0.049,0.042,0.079,0.06
			c0.047,0.073,0.087,0.15,0.142,0.215c0.032,0.037,0.088,0.051,0.134,0.075C69.652,50.717,69.531,50.65,69.412,50.586z
			 M68.304,37.153c0.073-0.151,0.113-0.308,0.156-0.309c0.158-0.002,0.382-0.01,0.465,0.087c0.178,0.204,0.333,0.459,0.394,0.718
			c0.028,0.119-0.16,0.371-0.303,0.424c-0.129,0.049-0.413-0.043-0.478-0.158C68.403,37.673,68.366,37.375,68.304,37.153z
			 M62.887,27.745c-0.555-0.148-0.605-0.423-0.212-0.872c0.403-0.462,0.802-0.931,1.244-1.354c1.271-1.212,2.246-2.637,3.142-4.135
			c1.153-1.93,2.338-3.841,3.56-5.728c0.494-0.763,1.118-1.443,1.694-2.153c0.449-0.552,1.101-1.023,1.334-1.652
			c0.574-1.543,1.495-2.1,2.418-1.698c5.873,0.705,10.253,2.709,13.112,7.367c0.576,0.938,0.595,1.143-0.125,1.82
			c-4.688,4.416-9.379,8.83-14.069,13.244c-0.149,0.14-0.298,0.28-0.453,0.415c-0.454,0.397-0.94,0.387-1.375,0.009
			C70.163,30.411,66.688,28.766,62.887,27.745z M70.68,44.675c0.096-0.963,0.98-1.498,1.767-1.988
			c0.111-0.07,0.39,0.018,0.525,0.119c0.151,0.112,0.254,0.313,0.33,0.496c1.075,2.579,1.368,5.333,1.859,7.895
			c-0.185,0.415-0.295,0.667-0.405,0.919c-0.138-0.141-0.321-0.26-0.403-0.427c-0.493-1.013-0.934-2.051-1.452-3.051
			c-0.423-0.816-0.937-1.585-1.399-2.381C71.196,45.733,70.63,45.17,70.68,44.675z M72.414,63.375
			c1.435-1.295,2.924-2.529,4.406-3.773c0.127-0.106,0.373-0.17,0.529-0.126c1.446,0.393,2.489,1.894,2.459,3.598
			c-0.148,1.718-0.806,3.253-2.385,4.294c-0.368,0.241-0.904,0.171-1.038-0.201c-0.24-0.669-0.441-1.354-0.675-2.026
			c-0.099-0.284-0.209-0.57-0.363-0.826c-0.344-0.571-1.434-0.712-1.871-0.217c-0.399,0.453-0.722,0.972-1.089,1.452
			c-0.042,0.056-0.186,0.103-0.224,0.074c-0.074-0.057-0.134-0.161-0.156-0.257C71.836,64.641,71.844,63.892,72.414,63.375z
			 M82.598,93.423c-0.271-0.028-0.597,0.028-0.803-0.101c-0.605-0.379-1.16-0.835-1.741-1.255c-0.329-0.239-0.65-0.501-1.008-0.693
			c-1.209-0.65-2.646,0.021-2.711,1.41c-0.087,1.892-0.964,3.525-1.434,5.286c-0.021,0.087-0.159,0.228-0.171,0.221
			c-0.173-0.101-0.404-0.188-0.483-0.348c-0.313-0.638-0.576-1.299-0.863-1.95c-0.573-1.3-0.69-2.478,0.539-3.556
			c0.6-0.527,1.007-1.282,1.469-1.955c0.37-0.538,0.349-1.299-0.034-1.715c-0.451-0.492-1.028-0.675-1.666-0.466
			c-0.385,0.125-0.756,0.323-1.092,0.55c-0.236,0.159-0.398,0.183-0.459-0.106c-0.037-0.175,0.004-0.439,0.119-0.561
			c0.489-0.516,0.985-1.031,1.539-1.473c0.797-0.634,1.893-1.191,1.579-2.366c-0.27-1.003-1.378-1.039-2.304-1.164
			c-0.496-0.066-0.7-0.899-0.301-1.209c0.716-0.556,1.494-1.031,2.215-1.581c0.52-0.396,0.327-1.259-0.321-1.462
			c-0.571-0.18-1.407-0.105-1.695-0.478c-0.546-0.708,0.255-1.49,0.321-2.272c0.025-0.294,0.229-0.569,0.303-0.865
			c0.2-0.811,0.751-1.171,1.535-1.256c0.508-0.055,1.017-0.106,1.633-0.171c0.185,0.099,0.518,0.176,0.681,0.385
			c0.674,0.857,1.274,1.638,1.356,2.915c0.32,5.019,1.644,9.843,3.349,14.563c0.139,0.384,0.322,0.752,0.447,1.141
			C82.647,93.052,82.599,93.245,82.598,93.423z M82.17,72.429c0.48,0.66,0.964,1.326,1.363,2.037
			c1.523,2.707,3.477,5.063,5.737,7.18c0.674,0.63,1.33,1.28,1.969,1.947c0.315,0.328,0.93,0.636,0.586,1.168
			c-0.149,0.23-0.757,0.165-1.252,0.251c-0.521-0.126-1.107-0.286-1.703-0.407c-1.375-0.281-2.399,0.374-2.704,1.771
			c-0.13,0.593-0.118,1.215-0.227,1.812c-0.025,0.136-0.282,0.303-0.445,0.316c-0.169,0.016-0.426-0.089-0.516-0.227
			c-0.223-0.337-0.445-0.705-0.539-1.093c-0.735-3.075-1.939-6.039-2.124-9.253c-0.045-0.775-0.5-1.542-0.835-2.282
			c-0.446-0.983-0.488-1.979-0.216-2.997c0.044-0.165,0.227-0.37,0.382-0.409C81.801,72.205,82.077,72.3,82.17,72.429z
			 M103.818,34.242c-1.437,0.773-2.83,1.65-4.325,2.284C93.194,39.2,87.621,42.912,82.86,47.835
			c-0.425,0.438-0.897,0.832-1.358,1.232c-0.232,0.202-0.672,0.076-0.754-0.194c-0.028-0.095-0.101-0.182-0.113-0.276
			c-0.411-3.274-1.384-6.39-2.781-9.363c-0.413-0.878-0.39-1.484,0.325-2.161c2.901-2.741,5.73-5.559,8.659-8.269
			c4.733-4.379,9.376-8.845,13.623-13.704c0.472-0.54,0.962-1.062,1.446-1.59c0.402-0.438,0.703-0.401,0.893,0.102
			c0.181,0.476,0.4,0.951,0.491,1.445c0.595,3.213,1.209,6.422,1.708,9.649c0.218,1.408,0.176,2.857,0.245,4.155
			c0,0.951-0.067,1.777,0.015,2.587C105.39,32.724,104.933,33.642,103.818,34.242z"/>
	</g>
</g>
<g>
</g>
<g>
</g>
<g>
</g>
<g>
</g>
<g>
</g>
<g>
</g>
<g>
</g>
<g>
</g>
<g>
</g>
<g>
</g>
<g>
</g>
<g>
</g>
<g>
</g>
<g>
</g>
<g>
</g>
</svg>
