<?xml version="1.0" encoding="iso-8859-1"?>
<!-- Generator: Adobe Illustrator 19.1.0, SVG Export Plug-In . SVG Version: 6.00 Build 0)  -->
<svg version="1.1" id="Capa_1" xmlns="http://www.w3.org/2000/svg" xmlns:xlink="http://www.w3.org/1999/xlink" x="0px" y="0px"
	 viewBox="0 0 64 64" style="enable-background:new 0 0 64 64;" xml:space="preserve">
<g>
	<g>
		<path style="fill:#8b91dd" d="M13,6.08V0h-2v6.08C7.613,6.568,5,9.48,5,13s2.613,6.432,6,6.92V64h2V19.92c3.387-0.488,6-3.4,6-6.92
			S16.387,6.568,13,6.08z M12,18c-2.757,0-5-2.243-5-5s2.243-5,5-5s5,2.243,5,5S14.757,18,12,18z"/>
		<path style="fill:#8b91dd" d="M53,44.08V0h-2v44.08c-3.387,0.488-6,3.4-6,6.92s2.613,6.432,6,6.92V64h2v-6.08c3.387-0.488,6-3.4,6-6.92
			S56.387,44.568,53,44.08z M52,56c-2.757,0-5-2.243-5-5s2.243-5,5-5s5,2.243,5,5S54.757,56,52,56z"/>
		<path style="fill:#8b91dd" d="M33,25.08V0h-2v25.08c-3.387,0.488-6,3.4-6,6.92s2.613,6.432,6,6.92V64h2V38.92c3.387-0.488,6-3.4,6-6.92
			S36.387,25.568,33,25.08z M32,37c-2.757,0-5-2.243-5-5s2.243-5,5-5s5,2.243,5,5S34.757,37,32,37z"/>
	</g>
</g>
<g>
</g>
<g>
</g>
<g>
</g>
<g>
</g>
<g>
</g>
<g>
</g>
<g>
</g>
<g>
</g>
<g>
</g>
<g>
</g>
<g>
</g>
<g>
</g>
<g>
</g>
<g>
</g>
<g>
</g>
</svg>
